<svg width="139" height="100" viewBox="0 0 139 100" fill="none" xmlns="http://www.w3.org/2000/svg">
<path d="M25.3394 4.17524C26.2144 4.17524 26.8949 3.38912 26.8949 2.50473C26.8949 1.62035 26.2144 0.834229 25.2421 0.834229C24.3671 0.834229 23.5894 1.52208 23.5894 2.50473C23.6866 3.38912 24.4644 4.17524 25.3394 4.17524Z" fill="#EAEEF9"/>
<path d="M23.6697 89.7481H114.929" stroke="#D6DCE8" stroke-width="2" stroke-miterlimit="10" stroke-linejoin="round"/>
<path d="M13.2898 89.748H21.087" stroke="#D6DCE8" stroke-width="2" stroke-miterlimit="10" stroke-linejoin="round"/>
<path d="M24.971 2.7573L20.9224 3.56995L23.9402 18.7164L27.9889 17.9038L24.971 2.7573Z" fill="#D5DDEA"/>
<path d="M39.8523 18.8347L37.2249 5.46063H16.018C15.0796 5.46063 14.3289 5.08389 13.7659 4.51879L12.2645 2.82348C11.7015 2.25838 12.0769 1.12817 13.0152 1.12817H38.9139C39.8523 1.12817 40.7906 1.88164 40.9783 2.82348L43.9811 17.8929L39.8523 18.8347Z" fill="#D5DDEA"/>
<path d="M101.596 89.4724C105.639 89.4724 108.916 86.1834 108.916 82.1261C108.916 78.0689 105.639 74.7798 101.596 74.7798C97.554 74.7798 94.2771 78.0689 94.2771 82.1261C94.2771 86.1834 97.554 89.4724 101.596 89.4724Z" fill="url(#paint0_linear_682_6)"/>
<path d="M49.9862 89.4724C54.0285 89.4724 57.3054 86.1834 57.3054 82.1261C57.3054 78.0689 54.0285 74.7798 49.9862 74.7798C45.9439 74.7798 42.667 78.0689 42.667 82.1261C42.667 86.1834 45.9439 89.4724 49.9862 89.4724Z" fill="url(#paint1_linear_682_6)"/>
<path d="M49.3497 64.7383L45.3035 65.5634L48.7411 82.5466L52.7873 81.7215L49.3497 64.7383Z" fill="#D5DDEA"/>
<path d="M101.409 84.1981H37.9757C37.0373 84.1981 36.099 83.4447 35.9113 82.5028L31.4072 60.6522C31.2195 59.522 31.9702 58.3918 33.0962 58.2034C34.2222 58.015 35.3483 58.7685 35.5359 59.8987L39.6647 80.054H101.596C102.722 80.054 103.661 80.9959 103.661 82.1261C103.661 83.2563 102.722 84.1981 101.409 84.1981Z" fill="#D5DDEA"/>
<path d="M37.6002 89.4724C41.6425 89.4724 44.9194 86.1834 44.9194 82.1261C44.9194 78.0689 41.6425 74.7798 37.6002 74.7798C33.5579 74.7798 30.281 78.0689 30.281 82.1261C30.281 86.1834 33.5579 89.4724 37.6002 89.4724Z" fill="url(#paint2_linear_682_6)"/>
<path d="M37.6002 85.7051C39.5695 85.7051 41.166 84.1027 41.166 82.1261C41.166 80.1495 39.5695 78.5471 37.6002 78.5471C35.6309 78.5471 34.0344 80.1495 34.0344 82.1261C34.0344 84.1027 35.6309 85.7051 37.6002 85.7051Z" fill="#8691AA"/>
<path d="M89.2098 89.4724C93.2521 89.4724 96.529 86.1834 96.529 82.1261C96.529 78.0689 93.2521 74.7798 89.2098 74.7798C85.1675 74.7798 81.8906 78.0689 81.8906 82.1261C81.8906 86.1834 85.1675 89.4724 89.2098 89.4724Z" fill="url(#paint3_linear_682_6)"/>
<path d="M89.2098 85.7051C91.1791 85.7051 92.7756 84.1027 92.7756 82.1261C92.7756 80.1495 91.1791 78.5471 89.2098 78.5471C87.2405 78.5471 85.644 80.1495 85.644 82.1261C85.644 84.1027 87.2405 85.7051 89.2098 85.7051Z" fill="#8691AA"/>
<g filter="url(#filter0_d_682_6)">
<path d="M116.61 17.3279L108.915 61.5942C108.352 64.4197 106.1 66.3034 103.285 66.3034H37.2247C34.4097 66.3034 32.1576 64.4197 31.5946 61.5942L22.9617 17.3279H116.61Z" fill="url(#paint4_linear_682_6)"/>
</g>
<path d="M62.1848 60.2756C63.1232 60.2756 64.0615 59.5221 64.0615 58.3919V25.4276C64.0615 24.4858 63.3109 23.5439 62.1848 23.5439C61.2465 23.5439 60.3081 24.2974 60.3081 25.4276V58.3919C60.3081 59.5221 61.0588 60.2756 62.1848 60.2756Z" fill="#E7EAF4"/>
<path d="M71.7564 60.2755C72.6948 60.4639 73.6332 59.7104 73.8208 58.5802L77.0112 25.8043C77.1989 24.8624 76.4482 23.9206 75.3222 23.7322C74.3838 23.5438 73.4455 24.2973 73.2578 25.4275L70.0674 58.2035C70.0674 59.3337 70.6304 60.0871 71.7564 60.2755Z" fill="#E7EAF4"/>
<path d="M81.5152 60.0871C82.4536 60.2754 83.3919 59.522 83.5796 58.5801L89.5851 26.1809C89.7728 25.2391 89.0221 24.2973 88.0837 24.1089C87.1454 23.9205 86.207 24.674 86.0193 25.6158L80.2015 58.015C79.8261 58.9569 80.5768 59.8987 81.5152 60.0871Z" fill="#E7EAF4"/>
<path d="M52.4261 60.2755C51.4878 60.4639 50.5494 59.7104 50.3617 58.5802L47.1713 25.8043C46.9836 24.8624 47.7343 23.9206 48.8604 23.7322C49.7987 23.5438 50.7371 24.2973 50.9248 25.4275L54.1152 58.2035C54.1152 59.3337 53.5522 60.0871 52.4261 60.2755Z" fill="#E7EAF4"/>
<path d="M42.6672 60.0871C41.7288 60.2754 40.7905 59.522 40.6028 58.5801L34.5973 26.1809C34.4096 25.2391 35.1603 24.2973 36.0987 24.1089C37.037 23.9205 37.9754 24.674 38.1631 25.6158L43.9809 58.015C44.3562 58.9569 43.6056 59.8987 42.6672 60.0871Z" fill="#E7EAF4"/>
<path d="M116.61 17.3271L108.916 61.5934C108.353 64.419 106.101 66.3026 103.286 66.3026H85.832C89.0225 66.3026 91.6499 64.0422 92.2129 61.0283L100.283 17.3271H116.61Z" fill="#DBDFEC"/>
<defs>
<filter id="filter0_d_682_6" x="0.96167" y="6.32788" width="137.648" height="92.9755" filterUnits="userSpaceOnUse" color-interpolation-filters="sRGB">
<feFlood flood-opacity="0" result="BackgroundImageFix"/>
<feColorMatrix in="SourceAlpha" type="matrix" values="0 0 0 0 0 0 0 0 0 0 0 0 0 0 0 0 0 0 127 0" result="hardAlpha"/>
<feOffset dy="11"/>
<feGaussianBlur stdDeviation="11"/>
<feColorMatrix type="matrix" values="0 0 0 0 0.397708 0 0 0 0 0.47749 0 0 0 0 0.575 0 0 0 0.27 0"/>
<feBlend mode="normal" in2="BackgroundImageFix" result="effect1_dropShadow_682_6"/>
<feBlend mode="normal" in="SourceGraphic" in2="effect1_dropShadow_682_6" result="shape"/>
</filter>
<linearGradient id="paint0_linear_682_6" x1="94.2704" y1="82.1277" x2="108.918" y2="82.1277" gradientUnits="userSpaceOnUse">
<stop stop-color="#B0BACC"/>
<stop offset="1" stop-color="#969EAE"/>
</linearGradient>
<linearGradient id="paint1_linear_682_6" x1="42.6603" y1="82.1277" x2="57.3081" y2="82.1277" gradientUnits="userSpaceOnUse">
<stop stop-color="#B0BACC"/>
<stop offset="1" stop-color="#969EAE"/>
</linearGradient>
<linearGradient id="paint2_linear_682_6" x1="30.2743" y1="82.1277" x2="44.9221" y2="82.1277" gradientUnits="userSpaceOnUse">
<stop stop-color="#B0BACC"/>
<stop offset="1" stop-color="#969EAE"/>
</linearGradient>
<linearGradient id="paint3_linear_682_6" x1="81.8839" y1="82.1277" x2="96.5317" y2="82.1277" gradientUnits="userSpaceOnUse">
<stop stop-color="#B0BACC"/>
<stop offset="1" stop-color="#969EAE"/>
</linearGradient>
<linearGradient id="paint4_linear_682_6" x1="69.7553" y1="16.195" x2="69.7553" y2="66.8314" gradientUnits="userSpaceOnUse">
<stop stop-color="#FDFEFF"/>
<stop offset="0.9964" stop-color="#ECF0F5"/>
</linearGradient>
</defs>
</svg>
