<svg width="107" height="91" viewBox="0 0 107 91" fill="none" xmlns="http://www.w3.org/2000/svg">
<path d="M15.3394 4.17499C16.2144 4.17499 16.8949 3.38887 16.8949 2.50449C16.8949 1.6201 16.2144 0.833984 15.2421 0.833984C14.3671 0.833984 13.5894 1.52184 13.5894 2.50449C13.6866 3.38887 14.4644 4.17499 15.3394 4.17499Z" fill="#2A2E37"/>
<path d="M13.6697 89.748H104.929" stroke="#2B323C" stroke-width="2" stroke-miterlimit="10" stroke-linecap="round" stroke-linejoin="round"/>
<path d="M1.28979 89.748H9.08704" stroke="#2B323C" stroke-width="2" stroke-miterlimit="10" stroke-linecap="round" stroke-linejoin="round"/>
<path d="M14.971 2.75717L10.9224 3.56982L13.9402 18.7163L17.9889 17.9036L14.971 2.75717Z" fill="#474E61"/>
<path d="M29.8523 18.8345L27.2249 5.46038H6.01797C5.07961 5.46038 4.32892 5.08365 3.76591 4.51854L2.26453 2.82324C1.70152 2.25813 2.07686 1.12793 3.01522 1.12793H28.9139C29.8523 1.12793 30.7906 1.8814 30.9783 2.82324L33.9811 17.8926L29.8523 18.8345Z" fill="#474E61"/>
<path d="M91.5963 89.472C95.6386 89.472 98.9155 86.1829 98.9155 82.1256C98.9155 78.0684 95.6386 74.7793 91.5963 74.7793C87.554 74.7793 84.2771 78.0684 84.2771 82.1256C84.2771 86.1829 87.554 89.472 91.5963 89.472Z" fill="#2A2E37"/>
<path d="M39.9862 89.472C44.0285 89.472 47.3054 86.1829 47.3054 82.1256C47.3054 78.0684 44.0285 74.7793 39.9862 74.7793C35.9439 74.7793 32.667 78.0684 32.667 82.1256C32.667 86.1829 35.9439 89.472 39.9862 89.472Z" fill="#2A2E37"/>
<path d="M39.3497 64.7379L35.3035 65.563L38.7411 82.5462L42.7873 81.7211L39.3497 64.7379Z" fill="#474E61"/>
<path d="M91.4088 84.1979H27.9757C27.0373 84.1979 26.099 83.4444 25.9113 82.5026L21.4072 60.6519C21.2195 59.5217 21.9702 58.3915 23.0962 58.2032C24.2222 58.0148 25.3483 58.7683 25.5359 59.8985L29.6647 80.0538H91.5964C92.7225 80.0538 93.6608 80.9956 93.6608 82.1258C93.6608 83.256 92.7225 84.1979 91.4088 84.1979Z" fill="#474E61"/>
<path d="M27.6002 89.472C31.6425 89.472 34.9194 86.1829 34.9194 82.1256C34.9194 78.0684 31.6425 74.7793 27.6002 74.7793C23.5579 74.7793 20.281 78.0684 20.281 82.1256C20.281 86.1829 23.5579 89.472 27.6002 89.472Z" fill="#2A2E37"/>
<path d="M27.6002 85.7048C29.5695 85.7048 31.166 84.1025 31.166 82.1259C31.166 80.1492 29.5695 78.5469 27.6002 78.5469C25.6309 78.5469 24.0344 80.1492 24.0344 82.1259C24.0344 84.1025 25.6309 85.7048 27.6002 85.7048Z" fill="#1E1F28"/>
<path d="M79.2098 89.472C83.2521 89.472 86.529 86.1829 86.529 82.1256C86.529 78.0684 83.2521 74.7793 79.2098 74.7793C75.1675 74.7793 71.8906 78.0684 71.8906 82.1256C71.8906 86.1829 75.1675 89.472 79.2098 89.472Z" fill="#2A2E37"/>
<path d="M79.2098 85.7048C81.1791 85.7048 82.7756 84.1025 82.7756 82.1259C82.7756 80.1492 81.1791 78.5469 79.2098 78.5469C77.2405 78.5469 75.644 80.1492 75.644 82.1259C75.644 84.1025 77.2405 85.7048 79.2098 85.7048Z" fill="#1E1F28"/>
<path d="M106.61 17.3276L98.9154 61.594C98.3524 64.4195 96.1003 66.3032 93.2852 66.3032H27.2247C24.4097 66.3032 22.1576 64.4195 21.5946 61.594L12.9617 17.3276H106.61Z" fill="#5C6479"/>
<path d="M52.1848 60.2756C53.1232 60.2756 54.0615 59.5221 54.0615 58.3919V25.4276C54.0615 24.4858 53.3109 23.5439 52.1848 23.5439C51.2465 23.5439 50.3081 24.2974 50.3081 25.4276V58.3919C50.3081 59.5221 51.0588 60.2756 52.1848 60.2756Z" fill="#474E61"/>
<path d="M61.7564 60.2753C62.6948 60.4636 63.6332 59.7102 63.8208 58.58L67.0112 25.804C67.1989 24.8622 66.4482 23.9203 65.3222 23.732C64.3838 23.5436 63.4455 24.2971 63.2578 25.4273L60.0674 58.2032C60.0674 59.3334 60.6304 60.0869 61.7564 60.2753Z" fill="#474E61"/>
<path d="M71.5152 60.0868C72.4536 60.2752 73.3919 59.5217 73.5796 58.5799L79.5851 26.1807C79.7728 25.2389 79.0221 24.297 78.0837 24.1086C77.1454 23.9203 76.207 24.6738 76.0193 25.6156L70.2015 58.0148C69.8261 58.9566 70.5768 59.8985 71.5152 60.0868Z" fill="#474E61"/>
<path d="M42.4261 60.2753C41.4878 60.4636 40.5494 59.7102 40.3617 58.58L37.1713 25.804C36.9836 24.8622 37.7343 23.9203 38.8604 23.732C39.7987 23.5436 40.7371 24.2971 40.9248 25.4273L44.1152 58.2032C44.1152 59.3334 43.5522 60.0869 42.4261 60.2753Z" fill="#474E61"/>
<path d="M32.6672 60.0868C31.7288 60.2752 30.7905 59.5217 30.6028 58.5799L24.5973 26.1807C24.4096 25.2389 25.1603 24.297 26.0987 24.1086C27.037 23.9203 27.9754 24.6738 28.1631 25.6156L33.9809 58.0148C34.3562 58.9566 33.6056 59.8985 32.6672 60.0868Z" fill="#474E61"/>
<path d="M106.61 17.3267L98.9157 61.593C98.3527 64.4185 96.1006 66.3022 93.2855 66.3022H75.832C79.0225 66.3022 81.6499 64.0418 82.2129 61.0279L90.2828 17.3267H106.61Z" fill="#474E61"/>
</svg>
