<svg width="144" height="141" viewBox="0 0 144 141" fill="none" xmlns="http://www.w3.org/2000/svg">
<path d="M71.9153 117.003C103.558 117.003 129.169 91.2405 129.169 59.455C129.169 27.6694 103.558 2 71.9153 2C40.3656 2 14.6619 27.7621 14.6619 59.5476C14.6619 91.3332 40.3656 117.003 71.9153 117.003Z" fill="#2A2E37"/>
<path d="M6.40267 72.9221C8.53691 72.9221 10.2072 71.2541 10.2072 69.1227C10.2072 66.9913 8.53691 65.3232 6.40267 65.3232C4.26842 65.3232 2.59814 66.9913 2.59814 69.1227C2.59814 71.2541 4.36122 72.9221 6.40267 72.9221Z" fill="#2A2E37"/>
<path d="M2.59821 60.5972C3.99011 60.5972 5.19642 59.3925 5.19642 58.0025C5.19642 56.6124 3.99011 55.4077 2.59821 55.4077C1.20631 55.4077 0 56.6124 0 58.0025C0 59.4852 1.20631 60.5972 2.59821 60.5972Z" fill="#2A2E37"/>
<path d="M138.726 82.467C141.417 82.467 143.551 80.3356 143.551 77.6481C143.551 74.9607 141.417 72.8293 138.726 72.8293C136.035 72.8293 133.901 74.9607 133.901 77.6481C133.901 80.3356 136.035 82.467 138.726 82.467Z" fill="#2A2E37"/>
<circle cx="70.6174" cy="29.6049" r="2.23823" fill="#C4C4C4"/>
<g filter="url(#filter0_d_577_989)">
<path d="M113.846 107.481H29.8287C26.6976 107.481 24.0884 104.894 24.0884 101.79V16.9294C24.0884 13.8248 26.6976 11.2375 29.8287 11.2375H113.846C116.977 11.2375 119.586 13.8248 119.586 16.9294V101.79C119.586 104.894 116.977 107.481 113.846 107.481Z" fill="#5C6479"/>
</g>
<path d="M70.8772 43.0341C77.4699 43.0341 82.8144 37.6896 82.8144 31.0969C82.8144 24.5041 77.4699 19.1597 70.8772 19.1597C64.2844 19.1597 58.9399 24.5041 58.9399 31.0969C58.9399 37.6896 64.2844 43.0341 70.8772 43.0341Z" fill="#474E61"/>
<path d="M70.8773 31.8431C73.3496 31.8431 75.3538 29.8389 75.3538 27.3666C75.3538 24.8943 73.3496 22.8901 70.8773 22.8901C68.4051 22.8901 66.4009 24.8943 66.4009 27.3666C66.4009 29.8389 68.4051 31.8431 70.8773 31.8431Z" fill="#989FB0"/>
<path d="M79.8302 39.3074C77.6656 41.6044 74.6218 43.0342 71.2503 43.0342C67.8788 43.0342 64.8349 41.6044 62.6704 39.3074C63.8656 35.8375 67.2553 33.3352 71.2503 33.3352C75.2452 33.3352 78.635 35.8375 79.8302 39.3074Z" fill="#989FB0"/>
<path d="M103.388 61.686H38.5931C37.8186 61.686 37.0442 60.8252 37.0442 59.9643V52.2166C37.0442 51.3557 37.8186 50.4949 38.5931 50.4949H103.388C104.163 50.4949 104.937 51.3557 104.937 52.2166V59.9643C104.937 60.8252 104.163 61.686 103.388 61.686Z" fill="#474E61"/>
<path d="M103.388 78.0998H38.5931C37.8186 78.0998 37.0442 77.239 37.0442 76.3781V68.6304C37.0442 67.7695 37.8186 66.9087 38.5931 66.9087H103.388C104.163 66.9087 104.937 67.7695 104.937 68.6304V76.3781C104.937 77.239 104.163 78.0998 103.388 78.0998Z" fill="#474E61"/>
<path d="M103.326 84.8145H79.6899C78.8841 84.8145 78.0784 85.4289 78.0784 86.6577V93.4163C78.0784 94.3379 78.6155 95.2595 79.6899 95.2595H103.326C104.131 95.2595 104.937 94.6451 104.937 93.4163V86.6577C104.937 85.6849 104.131 84.8145 103.326 84.8145Z" fill="#474E61"/>
<path d="M97.9375 89.291H85.8239C85.3084 89.291 84.793 89.6641 84.793 90.0371C84.793 90.4101 85.3084 90.7832 85.8239 90.7832H97.9375C98.453 90.7832 98.9684 90.4101 98.9684 90.0371C98.9684 89.4775 98.453 89.291 97.9375 89.291Z" fill="#989FB0"/>
<rect x="41.5205" y="54.9714" width="29.097" height="2.23823" fill="#989FB0"/>
<rect x="41.5205" y="71.385" width="2.23823" height="2.23823" rx="1.11911" fill="#AAB2C5"/>
<rect x="45.9971" y="71.385" width="2.23823" height="2.23823" rx="1.11911" fill="#AAB2C5"/>
<rect x="50.4734" y="71.385" width="2.23823" height="2.23823" rx="1.11911" fill="#AAB2C5"/>
<rect x="54.95" y="71.385" width="2.23823" height="2.23823" rx="1.11911" fill="#AAB2C5"/>
<rect x="58.6804" y="71.385" width="2.23823" height="2.23823" rx="1.11911" fill="#AAB2C5"/>
<rect x="63.1567" y="71.385" width="2.23823" height="2.23823" rx="1.11911" fill="#AAB2C5"/>
<defs>
<filter id="filter0_d_577_989" x="2.08838" y="0.237549" width="139.498" height="140.244" filterUnits="userSpaceOnUse" color-interpolation-filters="sRGB">
<feFlood flood-opacity="0" result="BackgroundImageFix"/>
<feColorMatrix in="SourceAlpha" type="matrix" values="0 0 0 0 0 0 0 0 0 0 0 0 0 0 0 0 0 0 127 0" result="hardAlpha"/>
<feOffset dy="11"/>
<feGaussianBlur stdDeviation="11"/>
<feColorMatrix type="matrix" values="0 0 0 0 0 0 0 0 0 0 0 0 0 0 0 0 0 0 0.27 0"/>
<feBlend mode="normal" in2="BackgroundImageFix" result="effect1_dropShadow_577_989"/>
<feBlend mode="normal" in="SourceGraphic" in2="effect1_dropShadow_577_989" result="shape"/>
</filter>
</defs>
</svg>
