<svg xmlns="http://www.w3.org/2000/svg" viewBox="0 0 1080 1080">
  <defs>
    <!-- Gradiente sem nome 4 -->
    <linearGradient id="Gradiente_sem_nome_4" x1="44" y1="820.89" x2="940.7" y2="582.62" gradientUnits="userSpaceOnUse">
      <stop offset="0" stop-color="#005f86"/>
      <stop offset="1" stop-color="#010b9e"/>
    </linearGradient>
    <!-- Gradiente sem nome 11 -->
    <linearGradient id="Gradiente_sem_nome_11" x1="891.62" y1="382.67" x2="195.74" y2="350.38" gradientUnits="userSpaceOnUse">
      <stop offset="0" stop-color="#d4145a" stop-opacity="0"/>
      <stop offset="0.1" stop-color="#d72c6a" stop-opacity="0.05"/>
      <stop offset="0.72" stop-color="#eabacc" stop-opacity="0.37"/>
      <stop offset="1" stop-color="#f2f2f2" stop-opacity="0.5"/>
    </linearGradient>
    <!-- Gradiente sem nome 14 -->
    <linearGradient id="Gradiente_sem_nome_14" x1="482.58" y1="254.67" x2="777.14" y2="373.42" gradientUnits="userSpaceOnUse">
      <stop offset="0" stop-color="#f15a24"/>
      <stop offset="0.15" stop-color="#f16330" stop-opacity="0.97"/>
      <stop offset="0.36" stop-color="#f17c52" stop-opacity="0.89"/>
      <stop offset="0.62" stop-color="#f1a489" stop-opacity="0.76"/>
      <stop offset="0.9" stop-color="#f2dcd5" stop-opacity="0.57"/>
      <stop offset="1" stop-color="#f2f2f2" stop-opacity="0.5"/>
    </linearGradient>
  </defs>
  <g>
    <g id="Camada_1" data-name="Camada 1">
      <!-- Primeiro path -->
      <path fill="#fd0001" d="M797.77,446.44l-.27.06a2114,2114,0,0,1-242,90q-16.41,5-32.61,9.61a2116.09,2116.09,0,0,1-347.11,68.57L132,507.64a131.09,131.09,0,0,1,71.68-171L463.56,230.27l89.2-36.49q3.3-1.35,6.62-2.5a131.11,131.11,0,0,1,164.39,74.27L770.58,380Z"/>
      <!-- Segundo path -->
      <path fill="url(#Gradiente_sem_nome_4)" d="M929.47,385.76a618.72,618.72,0,0,1-82,75.74q-16.23,12.47-32,23l51.15,130.33a131.14,131.14,0,0,1-71.68,171L526.78,895.59l-80.9,33.09a131.13,131.13,0,0,1-171-71.77L262,825.47c.65-.14,63.5-14.56,144-77.59a627.91,627.91,0,0,0,79.72-74.83c-68.66,26.68-127.35,46-171.25,59.45-85.12,26.06-129.88,34.66-178,37-45.79,2.22-117.09,5.68-132-27-9.17-20.11,6-46.66,24-76a287.8,287.8,0,0,1,67-75c-27,41.43-18.64,61.88-16,67.21,16.9,33.69,89.79,27.42,132,23.79a451.17,451.17,0,0,0,99-20c197.56-61.62,162.58-46.08,214.88-65.5C589.17,573.32,688,536.12,805.91,466.33c51.07-30.22,92.61-58.78,123.14-81A.32.32,0,0,1,929.47,385.76Z"/>
      <!-- Terceiro path -->
      <path fill="#f7f7f7" d="M412.5,507h0A26.49,26.49,0,0,0,386,480.5h0A26.49,26.49,0,0,0,412.5,454h0A26.49,26.49,0,0,0,439,480.5h0A26.49,26.49,0,0,0,412.5,507Z"/>
      <!-- Quarto path -->
      <path fill="#f7f7f7" d="M783.5,580h0A26.49,26.49,0,0,0,757,553.5h0A26.49,26.49,0,0,0,783.5,527h0A26.49,26.49,0,0,0,810,553.5h0A26.49,26.49,0,0,0,783.5,580Z"/>
      <!-- Quinto path -->
      <path fill="#f7f7f7" d="M559,704h0a13,13,0,0,0-13-13h0a13,13,0,0,0,13-13h0a13,13,0,0,0,13,13h0A13,13,0,0,0,559,704Z"/>
      <!-- Sexto path -->
      <path fill="#f7f7f7" d="M536,861h0a13,13,0,0,0-13-13h0a13,13,0,0,0,13-13h0a13,13,0,0,0,13,13h0A13,13,0,0,0,536,861Z"/>
      <!-- Sétimo path -->
      <path fill="#f7f7f7" d="M694.5,796h0A23.5,23.5,0,0,0,671,772.5h0A23.5,23.5,0,0,0,694.5,749h0A23.5,23.5,0,0,0,718,772.5h0A23.5,23.5,0,0,0,694.5,796Z"/>
      <!-- Oitavo path -->
      <path fill="#f7f7f7" d="M490,532h0a20,20,0,0,0-20-20h0a20,20,0,0,0,20-20h0a20,20,0,0,0,20,20h0A20,20,0,0,0,490,532Z"/>
      <!-- Nono path ajustado (removido opacity e fill modificado) -->
      <path fill="url(#Gradiente_sem_nome_11)" d="M797.77,446.44l-.27.06a2114,2114,0,0,1-242,90q-16.41,5-32.61,9.61c-172.3,2.67-319.67-32.83-396.67-56a131.14,131.14,0,0,1,77.45-153.56L463.56,230.27l89.2-36.49q3.3-1.35,6.62-2.5l74.47-3.43a131,131,0,0,1,89.92,77.7L770.58,380Z"/>
      <!-- Décimo path -->
      <path fill="#f7f7f7" d="M345,522h0a15,15,0,0,0-15-15h0a15,15,0,0,0,15-15h0a15,15,0,0,0,15,15h0A15,15,0,0,0,345,522Z"/>
      <!-- Décimo primeiro path ajustado -->
      <path fill="url(#Gradiente_sem_nome_14)" d="M770.58,380a180,180,0,0,1-307-149.7l89.2-36.49a131.15,131.15,0,0,1,171,71.77Z"/>
      <!-- Décimo segundo path -->
      <path fill="#01297f" fill-opacity="0.51" d="M526.78,895.59l-80.9,33.09a131.13,131.13,0,0,1-171-71.77L262,825.47c.65-.14,63.5-14.56,144-77.59C399.72,794.46,405,881.1,526.78,895.59Z"/>
      <!-- Décimo terceiro path -->
      <path fill="#fe0002" d="M965,331l33.5-33.5c-38.61-15.79-66.76-27.54-75-31-2.44-1-7.59-3.26-8-7-.28-2.5,1.67-4.74,3-6l47,2a23.35,23.35,0,0,1,6-8c2.37-2,6-5.06,9-4,3.93,1.4,4.67,9.21,4,14a19.64,19.64,0,0,1-1,4h17a28,28,0,0,1,6-7c3-2.54,5.6-4.68,8-4,3.81,1.08,4.71,8.59,5,11a25.78,25.78,0,0,1,0,6h15c6.1-6.61,15.36-14.42,27-17,7.56-1.68,10.11.18,11,1,2.92,2.7,2.29,7.67,2,10-1.83,14.63-18.28,27.72-24,32q.49,8,1,16a17.73,17.73,0,0,1,8,0c2.08.49,7.09,1.67,8,5s-2.76,6.85-5,9a23.11,23.11,0,0,1-8,5q-1,7-2,14a21.46,21.46,0,0,1,7-1c2.07.05,9.24.24,11,4,2,4.25-4,10.91-8,14a24,24,0,0,1-8,4q.49,19,1,38a8,8,0,0,1-3,5,8.2,8.2,0,0,1-9,0c-2.46-1.59-3.26-4.26-4-7a175.11,175.11,0,0,1-4-19q-6.49-29.5-13-59L981,347l-7.39,32a2.32,2.32,0,0,1-4.4.38L961,360a34.29,34.29,0,0,1-8,4c-3.47,1.2-6.76,2.33-8,1-1.93-2.08,2.31-8.89,3-10a27.54,27.54,0,0,1,4-5l-20-8.91a2.32,2.32,0,0,1,.54-4.4Z"/>
    </g>
  </g>
</svg>
