<svg width="134" height="161" viewBox="0 0 134 161" fill="none" xmlns="http://www.w3.org/2000/svg">
<path d="M64.4237 118.867C91.7974 118.867 113.99 96.6743 113.99 69.2029C113.99 41.7315 91.6996 19.5393 64.4237 19.5393C37.0501 19.5393 14.8579 41.7315 14.8579 69.2029C14.8579 96.6743 37.0501 118.867 64.4237 118.867Z" fill="#EAEEF9"/>
<path d="M93.6338 19.5393C83.2422 40.0217 67.9889 48.1701 54.0085 53.036C50.764 54.181 47.2331 55.1828 43.8931 54.3241C40.5531 53.4654 37.6425 50.0783 38.5491 46.7389C39.3602 43.6381 43.3682 42.1115 46.2788 43.3518C49.2371 44.5922 50.8594 48.027 50.5731 51.2232C50.2868 54.4195 48.3305 57.2341 45.8494 59.19C43.3205 61.1459 40.3145 62.3386 37.2608 63.245C30.533 65.2486 23.519 66.2027 16.9821 68.7311C10.3976 71.2595 4.14697 75.7915 1.9044 82.4225C0.282106 87.1453 0.950108 92.4883 3.04954 96.9726C5.14898 101.457 8.72756 105.226 12.7356 108.231C18.8907 112.811 26.4773 115.673 34.1116 115.482C41.7459 115.291 49.4757 111.952 54.1994 105.941C58.9231 99.9304 60.3068 91.2003 56.9668 84.283C54.6765 79.5125 49.4757 75.6006 44.2748 76.7456C40.1714 77.6997 37.1653 81.7069 36.7359 85.9527C36.3065 90.1985 38.1673 94.3965 40.9348 97.5451C43.7022 100.741 47.3762 102.983 51.1934 104.939C56.776 107.754 63.3606 109.901 69.134 107.515C74.6212 105.273 77.818 99.5964 79.9175 94.1103C82.0169 88.6242 83.5915 82.661 87.4086 78.129C91.9892 72.6906 99.7189 70.1622 106.638 71.7842C113.556 73.4062 119.377 79.1308 121.095 86.0004C122.431 91.3434 120.809 98.0221 115.799 100.36C111.886 102.22 107.067 100.884 103.679 98.213C100.292 95.5415 98.0012 91.725 95.8064 88.004" stroke="#D6DCE8" stroke-width="2" stroke-miterlimit="10" stroke-dasharray="4 4"/>
<g filter="url(#filter0_d_567_21002)">
<path d="M55.1786 42.3718C63.5323 45.1997 72.5968 40.7202 75.4247 32.3665C78.2527 24.0128 73.7731 14.9483 65.4194 12.1204C57.0657 9.29248 48.0012 13.772 45.1733 22.1257C42.3454 30.4794 46.8249 39.5439 55.1786 42.3718Z" fill="url(#paint0_linear_567_21002)"/>
</g>
<path d="M59.7563 28.8493C60.6417 29.149 61.6025 28.6742 61.9023 27.7888C62.202 26.9033 61.7272 25.9425 60.8418 25.6428C59.9563 25.3431 58.9955 25.8179 58.6958 26.7033C58.3961 27.5887 58.8709 28.5495 59.7563 28.8493Z" fill="#989FB0"/>
<path fill-rule="evenodd" clip-rule="evenodd" d="M60.6815 26.1164C60.0576 25.9052 59.3806 26.2398 59.1694 26.8636C58.9582 27.4875 59.2928 28.1645 59.9167 28.3757C60.5405 28.5869 61.2175 28.2523 61.4287 27.6284C61.6399 27.0046 61.3054 26.3276 60.6815 26.1164ZM58.2222 26.543C58.6105 25.396 59.8551 24.7809 61.0021 25.1692C62.1491 25.5575 62.7642 26.8021 62.3759 27.9491C61.9876 29.0961 60.743 29.7112 59.596 29.3229C58.449 28.9346 57.834 27.69 58.2222 26.543Z" fill="#989FB0"/>
<path d="M62.5 20.5L61 25.5" stroke="#989FB0" stroke-width="2" stroke-miterlimit="10" stroke-linecap="round" stroke-linejoin="round"/>
<path d="M62.0832 27.2543L65.5 27.5" stroke="#989FB0" stroke-width="2" stroke-miterlimit="10" stroke-linecap="round" stroke-linejoin="round"/>
<path d="M64.0749 17.77C64.3354 17.6458 64.4334 17.3215 64.2938 17.0455C64.1542 16.7696 63.8298 16.6466 63.5693 16.7708C63.3088 16.895 63.2108 17.2193 63.3504 17.4953C63.49 17.7712 63.8144 17.8942 64.0749 17.77Z" fill="#989FB0"/>
<path fill-rule="evenodd" clip-rule="evenodd" d="M63.8029 17.2327C63.7832 17.242 63.7758 17.2665 63.7864 17.2873C63.7969 17.3082 63.8214 17.3174 63.841 17.3081C63.8607 17.2987 63.8681 17.2742 63.8576 17.2534C63.847 17.2326 63.8225 17.2233 63.8029 17.2327ZM62.9142 17.7031C62.6455 17.1721 62.8342 16.5479 63.3355 16.3089C63.8368 16.0699 64.4611 16.3066 64.7297 16.8376C64.9984 17.3686 64.8098 17.9928 64.3084 18.2318C63.8071 18.4708 63.1829 18.2341 62.9142 17.7031Z" fill="#989FB0"/>
<path d="M57.3171 37.7046C57.5776 37.5804 57.6756 37.256 57.536 36.9801C57.3964 36.7041 57.072 36.5811 56.8115 36.7053C56.551 36.8295 56.453 37.1539 56.5926 37.4298C56.7322 37.7057 57.0566 37.8287 57.3171 37.7046Z" fill="#989FB0"/>
<path fill-rule="evenodd" clip-rule="evenodd" d="M57.0451 37.1672C57.0254 37.1766 57.018 37.2011 57.0285 37.2219C57.0391 37.2427 57.0635 37.252 57.0832 37.2426C57.1029 37.2333 57.1103 37.2088 57.0997 37.188C57.0892 37.1671 57.0647 37.1578 57.0451 37.1672ZM56.1564 37.6377C55.8877 37.1067 56.0763 36.4825 56.5777 36.2435C57.079 36.0045 57.7032 36.2412 57.9719 36.7722C58.2405 37.3032 58.0519 37.9274 57.5506 38.1664C57.0493 38.4054 56.425 38.1686 56.1564 37.6377Z" fill="#989FB0"/>
<path d="M50.7201 24.3826C50.9806 24.2584 51.0786 23.934 50.939 23.6581C50.7994 23.3821 50.4751 23.2591 50.2146 23.3833C49.9541 23.5075 49.8561 23.8319 49.9957 24.1078C50.1353 24.3837 50.4596 24.5067 50.7201 24.3826Z" fill="#989FB0"/>
<path fill-rule="evenodd" clip-rule="evenodd" d="M50.4484 23.8452C50.4287 23.8546 50.4213 23.8791 50.4318 23.8999C50.4424 23.9208 50.4669 23.93 50.4865 23.9207C50.5062 23.9113 50.5136 23.8868 50.5031 23.866C50.4925 23.8452 50.468 23.8359 50.4484 23.8452ZM49.5597 24.3157C49.291 23.7847 49.4797 23.1605 49.981 22.9215C50.4823 22.6825 51.1066 22.9192 51.3752 23.4502C51.6439 23.9812 51.4552 24.6054 50.9539 24.8444C50.4526 25.0834 49.8284 24.8467 49.5597 24.3157Z" fill="#989FB0"/>
<path d="M70.655 31.1404C70.9155 31.0162 71.0135 30.6918 70.8739 30.4159C70.7343 30.14 70.4099 30.017 70.1494 30.1412C69.8889 30.2654 69.7909 30.5897 69.9305 30.8656C70.0701 31.1416 70.3945 31.2646 70.655 31.1404Z" fill="#989FB0"/>
<path fill-rule="evenodd" clip-rule="evenodd" d="M70.3832 30.6032C70.3635 30.6125 70.3561 30.637 70.3667 30.6579C70.3772 30.6787 70.4017 30.688 70.4213 30.6786C70.441 30.6692 70.4484 30.6447 70.4379 30.6239C70.4273 30.6031 70.4029 30.5938 70.3832 30.6032ZM69.4945 31.0736C69.2258 30.5426 69.4145 29.9184 69.9158 29.6794C70.4172 29.4403 71.0414 29.6771 71.31 30.2081C71.5787 30.7391 71.3901 31.3634 70.8887 31.6024C70.3874 31.8414 69.7632 31.6047 69.4945 31.0736Z" fill="#989FB0"/>
<path d="M12.3005 47.098L14.9425 46.3017C15.1339 46.2461 15.1339 45.9684 14.9425 45.9128L12.3005 45.1165C12.2326 45.098 12.1832 45.0486 12.1647 44.9807L11.3684 42.3449C11.3128 42.1535 11.0351 42.1535 10.9795 42.3449L10.1832 44.9807C10.1647 45.0486 10.1153 45.098 10.0474 45.1165L7.41159 45.9128C7.22023 45.9684 7.22023 46.2461 7.41159 46.3017L10.0536 47.098C10.1215 47.1165 10.1709 47.1659 10.1894 47.2338L10.9857 49.8758C11.0412 50.0672 11.319 50.0672 11.3746 49.8758L12.1709 47.2338C12.1832 47.1659 12.2326 47.1165 12.3005 47.098Z" fill="#EAEEF9"/>
<path d="M96.5554 16.1732L99.2573 16.7335C99.452 16.7759 99.5845 16.5318 99.4428 16.3917L97.5006 14.4316C97.4497 14.383 97.4299 14.316 97.446 14.2475L98.0034 11.551C98.0458 11.3563 97.8017 11.2238 97.6616 11.3655L95.7045 13.3023C95.6558 13.3532 95.5888 13.373 95.5203 13.3569L92.8238 12.7995C92.6292 12.7571 92.4967 13.0012 92.6383 13.1413L94.5806 15.1014C94.6314 15.1501 94.6513 15.217 94.6352 15.2856L94.0748 17.9875C94.0324 18.1821 94.2765 18.3146 94.4167 18.1729L96.3767 16.2307C96.42 16.1769 96.4869 16.1571 96.5554 16.1732Z" fill="#EAEEF9"/>
<path d="M94.8952 83.0131L96.9595 81.182C97.1099 81.0513 96.9933 80.7991 96.7963 80.829L94.064 81.2144C93.9946 81.2261 93.9291 81.202 93.8838 81.1481L92.0553 79.0896C91.9246 78.9392 91.6724 79.0557 91.7023 79.2527L92.085 81.9793C92.0967 82.0487 92.0726 82.1143 92.0187 82.1596L89.96 83.9881C89.8096 84.1188 89.9262 84.3709 90.1232 84.3411L92.8555 83.9556C92.9249 83.9439 92.9904 83.9681 93.0357 84.0219L94.8668 86.0861C94.9975 86.2365 95.2497 86.1199 95.2198 85.9229L94.8345 83.1907C94.8172 83.1239 94.8413 83.0584 94.8952 83.0131Z" fill="#D6DCE8"/>
<path d="M73.8716 64.326L76.1834 63.6293C76.3508 63.5807 76.3508 63.3376 76.1834 63.289L73.8716 62.5923C73.8122 62.5761 73.769 62.5329 73.7528 62.4735L73.0561 60.1673C73.0074 59.9998 72.7644 59.9998 72.7158 60.1673L72.019 62.4735C72.0028 62.5329 71.9596 62.5761 71.9002 62.5923L69.5938 63.289C69.4264 63.3376 69.4264 63.5807 69.5938 63.6293L71.9056 64.326C71.965 64.3422 72.0082 64.3854 72.0244 64.4448L72.7212 66.7564C72.7698 66.9239 73.0128 66.9239 73.0615 66.7564L73.7582 64.4448C73.769 64.3854 73.8122 64.3422 73.8716 64.326Z" fill="#D6DCE8"/>
<path d="M29.5118 96.7616L31.8235 95.9653C31.991 95.9097 31.991 95.6319 31.8235 95.5764L29.5118 94.7801C29.4524 94.7616 29.4092 94.7122 29.393 94.6443L28.6962 92.0084C28.6476 91.8171 28.4045 91.8171 28.3559 92.0084L27.6591 94.6443C27.6429 94.7122 27.5997 94.7616 27.5403 94.7801L25.234 95.5764C25.0665 95.6319 25.0665 95.9097 25.234 95.9653L27.5457 96.7616C27.6051 96.7801 27.6483 96.8295 27.6646 96.8974L28.3613 99.5394C28.4099 99.7307 28.653 99.7307 28.7016 99.5394L29.3984 96.8974C29.4092 96.8295 29.4524 96.7801 29.5118 96.7616Z" fill="#D6DCE8"/>
<path d="M25.6924 57.6717L27.3436 57.1741C27.4632 57.1394 27.4632 56.9658 27.3436 56.931L25.6924 56.4334C25.65 56.4218 25.6191 56.391 25.6075 56.3485L25.1098 54.7013C25.0751 54.5817 24.9015 54.5817 24.8668 54.7013L24.3691 56.3485C24.3575 56.391 24.3266 56.4218 24.2842 56.4334L22.6368 56.931C22.5172 56.9658 22.5172 57.1394 22.6368 57.1741L24.2881 57.6717C24.3305 57.6833 24.3614 57.7142 24.3729 57.7566L24.8706 59.4077C24.9054 59.5273 25.079 59.5273 25.1137 59.4077L25.6114 57.7566C25.6191 57.7142 25.65 57.6833 25.6924 57.6717Z" fill="#D6DCE8"/>
<path d="M120.831 58.7623L122.482 58.2647C122.601 58.2299 122.601 58.0563 122.482 58.0216L120.831 57.524C120.788 57.5124 120.757 57.4815 120.746 57.4391L120.248 55.7918C120.213 55.6723 120.04 55.6723 120.005 55.7918L119.507 57.4391C119.496 57.4815 119.465 57.5124 119.422 57.524L117.775 58.0216C117.655 58.0563 117.655 58.2299 117.775 58.2647L119.426 58.7623C119.469 58.7739 119.5 58.8047 119.511 58.8472L120.009 60.4983C120.044 60.6179 120.217 60.6179 120.252 60.4983L120.75 58.8472C120.757 58.8047 120.788 58.7739 120.831 58.7623Z" fill="#EAEEF9"/>
<path d="M37.8975 34.6538L39.5487 34.1561C39.6683 34.1214 39.6683 33.9478 39.5487 33.9131L37.8975 33.4154C37.855 33.4038 37.8242 33.373 37.8126 33.3305L37.3149 31.6833C37.2802 31.5637 37.1066 31.5637 37.0719 31.6833L36.5742 33.3305C36.5626 33.373 36.5317 33.4038 36.4893 33.4154L34.8419 33.9131C34.7223 33.9478 34.7223 34.1214 34.8419 34.1561L36.4931 34.6538C36.5356 34.6653 36.5664 34.6962 36.578 34.7386L37.0757 36.3897C37.1104 36.5093 37.284 36.5093 37.3188 36.3897L37.8165 34.7386C37.8242 34.6962 37.855 34.6653 37.8975 34.6538Z" fill="#D6DCE8"/>
<path d="M13.3067 90.1034L14.9579 89.6057C15.0775 89.571 15.0775 89.3974 14.9579 89.3627L13.3067 88.865C13.2642 88.8535 13.2334 88.8226 13.2218 88.7802L12.7241 87.1329C12.6894 87.0133 12.5158 87.0133 12.481 87.1329L11.9833 88.7802C11.9718 88.8226 11.9409 88.8535 11.8985 88.865L10.2511 89.3627C10.1315 89.3974 10.1315 89.571 10.2511 89.6057L11.9023 90.1034C11.9448 90.1149 11.9756 90.1458 11.9872 90.1882L12.4849 91.8394C12.5196 91.9589 12.6932 91.9589 12.7279 91.8394L13.2256 90.1882C13.2334 90.1458 13.2642 90.1149 13.3067 90.1034Z" fill="#EAEEF9"/>
<path d="M74.5354 109.547C74.5354 109.547 64.4213 118.925 63.742 118.973C63.2924 119.146 59.3136 120.796 56.779 121.861L56.1082 120.904C55.7728 120.426 55.4375 119.948 55.1306 119.308C55.2548 119.078 55.3118 118.752 55.3689 118.427C56.6662 114.378 60.6978 108.126 69.195 108.442L74.5354 109.547Z" fill="#F1F3F9" stroke="#D6DCE8" stroke-width="1.9781" stroke-miterlimit="10" stroke-linecap="round" stroke-linejoin="round"/>
<g filter="url(#filter1_d_567_21002)">
<path d="M58.692 64.5908L61.9788 69.276C62.9178 70.6147 63.5601 71.7336 64.0496 73.2449C65.8821 78.0943 65.1986 83.4247 62.6769 87.7618C62.2088 88.5182 61.9704 89.3988 62.0861 90.1737C62.106 91.0157 62.3558 91.9819 62.8924 92.7468C63.9657 94.2767 65.7653 95.0117 67.5735 94.7419C73.3805 93.6644 79.3531 95.4668 83.4434 99.8737C83.9415 100.38 84.3439 100.954 84.8135 101.623L88.1002 106.309C88.5027 106.882 88.8095 107.523 89.1449 108.001L61.0333 127.722C60.6023 127.311 60.1327 126.642 59.7973 126.163L56.5106 121.478C56.1752 121 55.9354 120.455 55.6 119.977C55.4659 119.786 55.3603 119.432 55.159 119.145C52.5701 113.827 52.8798 107.761 55.841 102.83C56.7772 101.317 56.6316 99.2789 55.5584 97.7491C55.0888 97.0797 54.361 96.4489 53.5761 96.1435C53.509 96.0479 53.4134 96.115 53.4134 96.115C52.6284 95.8096 51.7864 95.8296 50.9444 95.8496C47.0412 96.5903 43.0409 95.9724 39.4316 94.0815C38.5125 93.5849 37.5934 93.0882 36.7985 92.3618C36.5687 92.2377 36.3675 91.9508 36.2334 91.7596C35.3714 90.9375 34.4423 90.0199 33.7044 88.9681L30.4177 84.2828C30.3506 84.1872 30.2164 83.996 30.0823 83.8047L58.3851 63.95C58.4908 64.3039 58.5578 64.3995 58.692 64.5908Z" fill="url(#paint1_linear_567_21002)"/>
</g>
<path d="M56.5304 84.0842L45.3631 92.7742L39.5946 94.1101C38.6755 93.6134 37.7565 93.1168 36.9615 92.3904C36.7318 92.2662 36.5305 91.9794 36.3964 91.7881C39.4818 86.6276 42.3203 83.3522 50.5763 81.6981C51.9635 81.4383 53.2551 81.2456 54.805 81.0144C68.6011 79.3259 56.5304 84.0842 56.5304 84.0842Z" fill="#BAC3D1"/>
<path d="M64.1168 73.3405C65.9493 78.1899 65.2658 83.5203 62.7441 87.8574C62.276 88.6138 62.0377 89.4944 62.1533 90.2693L62.0577 90.3364C60.5278 91.4096 60.1282 93.6873 61.2014 95.2172L71.1959 109.464L68.423 111.41L58.3614 97.0668C57.2882 95.537 55.1061 95.0703 53.4806 96.2106C52.6957 95.9052 51.8536 95.9252 51.0116 95.9452C47.1084 96.6859 43.1081 96.068 39.4988 94.1771C38.5798 93.6805 37.6607 93.1838 36.8657 92.4574C45.3801 90.7647 48.2457 85.901 50.452 81.9278C51.1684 80.7119 51.7892 79.563 52.4771 78.5098C55.2 74.4595 59.2174 73.068 64.1168 73.3405Z" fill="#D5DDEA"/>
<path d="M84.7176 101.69L88.0043 106.376C88.4068 106.949 88.7136 107.59 89.049 108.068L63.9972 125.642L59.3946 125.59L56.4432 121.383C56.1079 120.904 55.7725 120.426 55.5327 119.881C55.3985 119.69 55.2929 119.336 55.0917 119.049C55.1873 118.982 55.2544 119.078 55.35 119.011C55.5127 119.039 55.6083 118.972 55.7039 118.905C65.0217 116.934 67.5135 111.334 69.8725 106.968C70.245 106.279 70.7131 105.522 71.1526 104.929C74.0382 100.907 78.2183 99.5441 83.2804 99.8452C83.7499 100.514 84.248 101.021 84.7176 101.69Z" fill="#D5DDEA"/>
<path d="M60.9889 64.4062L29.6263 86.4074C28.957 86.8769 27.9808 86.7057 27.5783 86.132L25.4319 83.0722C24.9623 82.4029 25.2007 81.5223 25.87 81.0528L57.3282 58.9845C57.9976 58.515 58.9067 58.5906 59.3762 59.2599L61.4556 62.2241C61.7339 63.0275 61.6583 63.9366 60.9889 64.4062Z" fill="url(#paint2_linear_567_21002)"/>
<path d="M92.6484 109.538L61.2858 131.54C60.6165 132.009 59.7074 131.933 59.2378 131.264L57.1584 128.3C56.6889 127.631 56.9272 126.75 57.5965 126.281L89.0548 104.212C89.7241 103.743 90.6332 103.818 91.1028 104.488L93.1821 107.452C93.4604 108.255 93.3177 109.069 92.6484 109.538Z" fill="url(#paint3_linear_567_21002)"/>
<path d="M93.8336 60.76C93.8336 60.76 87.0032 58.2089 86.8191 57.8995C86.6308 57.7282 84.907 56.2404 83.8025 55.296L84.0949 54.7522C84.2411 54.4803 84.3873 54.2084 84.6171 53.9113C84.7551 53.9154 84.9224 53.8652 85.0896 53.8149C87.31 53.4665 91.2202 53.8866 93.0877 57.9753L93.8336 60.76Z" fill="#F1F3F9" stroke="#D6DCE8" stroke-width="1.9781" stroke-miterlimit="10" stroke-linecap="round" stroke-linejoin="round"/>
<g filter="url(#filter2_d_567_21002)">
<path d="M111.307 42.6049L109.874 45.2695C109.465 46.0309 109.089 46.5998 108.491 47.1898C106.636 49.2065 103.956 50.149 101.309 49.9874C100.84 49.9459 100.368 50.0423 100.029 50.2809C99.6362 50.4902 99.2391 50.8375 99.0052 51.2726C98.5373 52.1427 98.6174 53.1672 99.174 53.9572C101.061 56.4443 101.628 59.6932 100.517 62.6713C100.396 63.0269 100.221 63.3531 100.016 63.7338L98.5832 66.3985C98.4078 66.7247 98.178 67.0218 98.0318 67.2937L82.0439 58.6968C82.1357 58.3956 82.3404 58.015 82.4866 57.7431L83.9194 55.0784C84.0656 54.8065 84.2662 54.5639 84.4124 54.292C84.4709 54.1832 84.613 54.0493 84.7007 53.8861C86.5978 51.401 89.5369 50.1072 92.5688 50.3354C93.5056 50.4185 94.4337 49.866 94.9015 48.9959C95.1062 48.6152 95.2314 48.1217 95.1893 47.6784C95.2185 47.624 95.1642 47.5948 95.1642 47.5948C95.1221 47.1516 94.9128 46.7586 94.7034 46.3656C93.427 44.6978 92.7693 42.6616 92.8057 40.508C92.8221 39.956 92.8385 39.404 92.9929 38.8561C92.997 38.7181 93.0847 38.5549 93.1432 38.4462C93.3269 37.8439 93.5398 37.1872 93.8614 36.589L95.2942 33.9244C95.3235 33.87 95.3819 33.7612 95.4404 33.6525L111.537 42.3078C111.395 42.4417 111.366 42.4961 111.307 42.6049Z" fill="url(#paint4_linear_567_21002)"/>
</g>
<path d="M101.587 46.2111L94.8313 42.9992L92.831 40.5916C92.8474 40.0396 92.8638 39.4876 93.0182 38.9397C93.0223 38.8017 93.1101 38.6386 93.1685 38.5298C96.3385 38.7622 98.5594 39.3254 101.3 42.8324C101.752 43.4259 102.15 43.9902 102.627 44.6674C106.7 50.783 101.587 46.2111 101.587 46.2111Z" fill="#BAC3D1"/>
<path d="M108.462 47.2442C106.607 49.2609 103.927 50.2034 101.279 50.0418C100.811 50.0003 100.339 50.0967 100 50.3353L99.9456 50.3061C99.0756 49.8382 97.9049 50.1901 97.437 51.0602L93.0801 59.1629L91.503 58.315L95.8892 50.1579C96.3571 49.2878 96.0595 48.1463 95.135 47.6492C95.0929 47.206 94.8836 46.813 94.6743 46.42C93.3979 44.7522 92.7402 42.7161 92.7765 40.5624C92.7929 40.0104 92.8094 39.4584 92.9638 38.9105C95.7844 42.5303 98.762 42.7293 101.162 42.8283C101.907 42.878 102.597 42.8985 103.258 42.9734C105.817 43.2981 107.428 44.8654 108.462 47.2442Z" fill="#D5DDEA"/>
<path d="M99.962 63.7046L98.5292 66.3693C98.3537 66.6955 98.1239 66.9926 97.9777 67.2645L83.73 59.6033L82.6623 57.4168L83.9489 55.0241C84.0952 54.7522 84.2414 54.4803 84.4419 54.2376C84.5004 54.1289 84.6425 53.995 84.7303 53.8318C84.7846 53.8611 84.7554 53.9154 84.8098 53.9447C84.8349 54.0283 84.8893 54.0575 84.9437 54.0868C88.0865 58.02 91.3231 57.8676 93.9452 57.9456C94.3592 57.9579 94.8276 57.9994 95.2123 58.0661C97.7969 58.4744 99.433 60.1253 100.492 62.5878C100.288 62.9684 100.167 63.3239 99.962 63.7046Z" fill="#D5DDEA"/>
<path d="M111.939 43.6458L94.1024 34.0547C93.7217 33.85 93.5709 33.3483 93.7463 33.022L94.6821 31.2818C94.8868 30.9012 95.3592 30.8047 95.7399 31.0094L113.631 40.6298C114.012 40.8344 114.192 41.2818 113.987 41.6625L113.081 43.3482C112.767 43.6704 112.32 43.8505 111.939 43.6458Z" fill="url(#paint5_linear_567_21002)"/>
<path d="M98.1377 69.3134L80.3008 59.7223C79.9202 59.5176 79.7401 59.0703 79.9448 58.6896L80.8513 57.0038C81.0559 56.6232 81.5284 56.5267 81.9091 56.7314L99.8003 66.3517C100.181 66.5564 100.361 67.0038 100.156 67.3844L99.2499 69.0702C98.9364 69.3924 98.5183 69.5181 98.1377 69.3134Z" fill="url(#paint6_linear_567_21002)"/>
<defs>
<filter id="filter0_d_567_21002" x="22.3257" y="0.272858" width="75.9465" height="75.9465" filterUnits="userSpaceOnUse" color-interpolation-filters="sRGB">
<feFlood flood-opacity="0" result="BackgroundImageFix"/>
<feColorMatrix in="SourceAlpha" type="matrix" values="0 0 0 0 0 0 0 0 0 0 0 0 0 0 0 0 0 0 127 0" result="hardAlpha"/>
<feOffset dy="11"/>
<feGaussianBlur stdDeviation="11"/>
<feColorMatrix type="matrix" values="0 0 0 0 0.397708 0 0 0 0 0.47749 0 0 0 0 0.575 0 0 0 0.27 0"/>
<feBlend mode="normal" in2="BackgroundImageFix" result="effect1_dropShadow_567_21002"/>
<feBlend mode="normal" in="SourceGraphic" in2="effect1_dropShadow_567_21002" result="shape"/>
</filter>
<filter id="filter1_d_567_21002" x="8.08228" y="52.95" width="103.063" height="107.772" filterUnits="userSpaceOnUse" color-interpolation-filters="sRGB">
<feFlood flood-opacity="0" result="BackgroundImageFix"/>
<feColorMatrix in="SourceAlpha" type="matrix" values="0 0 0 0 0 0 0 0 0 0 0 0 0 0 0 0 0 0 127 0" result="hardAlpha"/>
<feOffset dy="11"/>
<feGaussianBlur stdDeviation="11"/>
<feColorMatrix type="matrix" values="0 0 0 0 0.397708 0 0 0 0 0.47749 0 0 0 0 0.575 0 0 0 0.27 0"/>
<feBlend mode="normal" in2="BackgroundImageFix" result="effect1_dropShadow_567_21002"/>
<feBlend mode="normal" in="SourceGraphic" in2="effect1_dropShadow_567_21002" result="shape"/>
</filter>
<filter id="filter2_d_567_21002" x="60.0439" y="22.6525" width="73.4932" height="77.6412" filterUnits="userSpaceOnUse" color-interpolation-filters="sRGB">
<feFlood flood-opacity="0" result="BackgroundImageFix"/>
<feColorMatrix in="SourceAlpha" type="matrix" values="0 0 0 0 0 0 0 0 0 0 0 0 0 0 0 0 0 0 127 0" result="hardAlpha"/>
<feOffset dy="11"/>
<feGaussianBlur stdDeviation="11"/>
<feColorMatrix type="matrix" values="0 0 0 0 0.397708 0 0 0 0 0.47749 0 0 0 0 0.575 0 0 0 0.27 0"/>
<feBlend mode="normal" in2="BackgroundImageFix" result="effect1_dropShadow_567_21002"/>
<feBlend mode="normal" in="SourceGraphic" in2="effect1_dropShadow_567_21002" result="shape"/>
</filter>
<linearGradient id="paint0_linear_567_21002" x1="65.6464" y1="11.4173" x2="55.0584" y2="42.6946" gradientUnits="userSpaceOnUse">
<stop stop-color="#FDFEFF"/>
<stop offset="0.9964" stop-color="#ECF0F5"/>
</linearGradient>
<linearGradient id="paint1_linear_567_21002" x1="43.5108" y1="72.8664" x2="75.4125" y2="118.342" gradientUnits="userSpaceOnUse">
<stop stop-color="#FDFEFF"/>
<stop offset="0.9964" stop-color="#ECF0F5"/>
</linearGradient>
<linearGradient id="paint2_linear_567_21002" x1="26.49" y1="84.6136" x2="60.456" y2="60.786" gradientUnits="userSpaceOnUse">
<stop stop-color="#B0BACC"/>
<stop offset="1" stop-color="#969EAE"/>
</linearGradient>
<linearGradient id="paint3_linear_567_21002" x1="58.183" y1="129.793" x2="92.149" y2="105.966" gradientUnits="userSpaceOnUse">
<stop stop-color="#B0BACC"/>
<stop offset="1" stop-color="#969EAE"/>
</linearGradient>
<linearGradient id="paint4_linear_567_21002" x1="103.795" y1="37.3987" x2="89.8876" y2="63.2621" gradientUnits="userSpaceOnUse">
<stop stop-color="#FDFEFF"/>
<stop offset="0.9964" stop-color="#ECF0F5"/>
</linearGradient>
<linearGradient id="paint5_linear_567_21002" x1="94.2052" y1="32.1475" x2="113.523" y2="42.5348" gradientUnits="userSpaceOnUse">
<stop stop-color="#B0BACC"/>
<stop offset="1" stop-color="#969EAE"/>
</linearGradient>
<linearGradient id="paint6_linear_567_21002" x1="80.389" y1="57.8423" x2="99.7065" y2="68.2296" gradientUnits="userSpaceOnUse">
<stop stop-color="#B0BACC"/>
<stop offset="1" stop-color="#969EAE"/>
</linearGradient>
</defs>
</svg>
