<svg width="134" height="161" viewBox="0 0 134 161" fill="none" xmlns="http://www.w3.org/2000/svg">
<path d="M64.4237 118.867C91.7974 118.867 113.99 96.6745 113.99 69.2031C113.99 41.7317 91.6996 19.5396 64.4237 19.5396C37.0501 19.5396 14.8579 41.7317 14.8579 69.2031C14.8579 96.6745 37.0501 118.867 64.4237 118.867Z" fill="#2A2E37"/>
<path d="M93.6338 19.5396C83.2422 40.022 67.9889 48.1703 54.0085 53.0363C50.764 54.1812 47.2331 55.183 43.8931 54.3243C40.5531 53.4656 37.6425 50.0785 38.5491 46.7392C39.3602 43.6383 43.3682 42.1117 46.2788 43.3521C49.2371 44.5924 50.8594 48.0272 50.5731 51.2235C50.2868 54.4197 48.3305 57.2343 45.8494 59.1903C43.3205 61.1462 40.3145 62.3388 37.2608 63.2452C30.533 65.2488 23.519 66.2029 16.9821 68.7313C10.3976 71.2597 4.14697 75.7917 1.9044 82.4227C0.282106 87.1456 0.950108 92.4886 3.04954 96.9729C5.14898 101.457 8.72756 105.226 12.7356 108.231C18.8907 112.811 26.4773 115.673 34.1116 115.483C41.7459 115.292 49.4757 111.952 54.1994 105.941C58.9231 99.9306 60.3068 91.2005 56.9668 84.2833C54.6765 79.5127 49.4757 75.6009 44.2748 76.7458C40.1714 77.6999 37.1653 81.7072 36.7359 85.9529C36.3065 90.1987 38.1673 94.3968 40.9348 97.5453C43.7022 100.742 47.3762 102.984 51.1934 104.94C56.776 107.754 63.3606 109.901 69.134 107.516C74.6212 105.274 77.818 99.5967 79.9175 94.1106C82.0169 88.6244 83.5915 82.6613 87.4086 78.1293C91.9892 72.6909 99.7189 70.1625 106.638 71.7845C113.556 73.4064 119.377 79.1311 121.095 86.0006C122.431 91.3436 120.809 98.0224 115.799 100.36C111.886 102.22 107.067 100.885 103.679 98.2132C100.292 95.5417 98.0012 91.7253 95.8064 88.0043" stroke="#4F576B" stroke-width="2" stroke-miterlimit="10" stroke-dasharray="4 4"/>
<g filter="url(#filter0_d_577_1684)">
<path d="M55.1786 42.3718C63.5323 45.1997 72.5968 40.7202 75.4247 32.3665C78.2527 24.0128 73.7731 14.9483 65.4194 12.1204C57.0657 9.29248 48.0012 13.772 45.1733 22.1257C42.3454 30.4794 46.8249 39.5439 55.1786 42.3718Z" fill="#5C6479"/>
</g>
<path d="M59.7563 28.8493C60.6417 29.149 61.6025 28.6742 61.9023 27.7888C62.202 26.9033 61.7272 25.9426 60.8418 25.6428C59.9563 25.3431 58.9955 25.8179 58.6958 26.7033C58.3961 27.5888 58.8709 28.5495 59.7563 28.8493Z" fill="#989FB0"/>
<path fill-rule="evenodd" clip-rule="evenodd" d="M60.6815 26.1166C60.0576 25.9054 59.3806 26.2399 59.1694 26.8638C58.9582 27.4877 59.2928 28.1646 59.9167 28.3758C60.5405 28.587 61.2175 28.2525 61.4287 27.6286C61.6399 27.0047 61.3054 26.3278 60.6815 26.1166ZM58.2222 26.5431C58.6105 25.3961 59.8551 24.7811 61.0021 25.1694C62.1491 25.5576 62.7642 26.8022 62.3759 27.9492C61.9876 29.0962 60.743 29.7113 59.596 29.323C58.449 28.9347 57.834 27.6901 58.2222 26.5431Z" fill="#989FB0"/>
<path d="M62.5 20.5L61 25.5" stroke="#989FB0" stroke-width="2" stroke-miterlimit="10" stroke-linecap="round" stroke-linejoin="round"/>
<path d="M62.0832 27.2543L65.5 27.5" stroke="#989FB0" stroke-width="2" stroke-miterlimit="10" stroke-linecap="round" stroke-linejoin="round"/>
<path d="M64.0749 17.77C64.3354 17.6458 64.4334 17.3214 64.2938 17.0455C64.1542 16.7696 63.8298 16.6465 63.5693 16.7707C63.3088 16.8949 63.2108 17.2193 63.3504 17.4952C63.49 17.7712 63.8144 17.8942 64.0749 17.77Z" fill="#989FB0"/>
<path fill-rule="evenodd" clip-rule="evenodd" d="M63.8029 17.2327C63.7832 17.2421 63.7758 17.2666 63.7864 17.2874C63.7969 17.3082 63.8214 17.3175 63.841 17.3081C63.8607 17.2988 63.8681 17.2743 63.8576 17.2535C63.847 17.2326 63.8225 17.2233 63.8029 17.2327ZM62.9142 17.7031C62.6455 17.1722 62.8342 16.548 63.3355 16.309C63.8368 16.07 64.4611 16.3067 64.7297 16.8377C64.9984 17.3687 64.8098 17.9929 64.3084 18.2319C63.8071 18.4709 63.1829 18.2341 62.9142 17.7031Z" fill="#989FB0"/>
<path d="M57.3171 37.7046C57.5776 37.5804 57.6756 37.256 57.536 36.9801C57.3964 36.7041 57.072 36.5811 56.8115 36.7053C56.551 36.8295 56.453 37.1539 56.5926 37.4298C56.7322 37.7057 57.0566 37.8287 57.3171 37.7046Z" fill="#989FB0"/>
<path fill-rule="evenodd" clip-rule="evenodd" d="M57.0451 37.1673C57.0254 37.1767 57.018 37.2011 57.0285 37.222C57.0391 37.2428 57.0635 37.2521 57.0832 37.2427C57.1029 37.2333 57.1103 37.2088 57.0997 37.188C57.0892 37.1672 57.0647 37.1579 57.0451 37.1673ZM56.1564 37.6377C55.8877 37.1067 56.0763 36.4825 56.5777 36.2435C57.079 36.0046 57.7032 36.2413 57.9719 36.7723C58.2405 37.3033 58.0519 37.9275 57.5506 38.1664C57.0493 38.4054 56.425 38.1687 56.1564 37.6377Z" fill="#989FB0"/>
<path d="M50.7201 24.3828C50.9806 24.2586 51.0786 23.9342 50.939 23.6583C50.7994 23.3823 50.4751 23.2593 50.2146 23.3835C49.9541 23.5077 49.8561 23.8321 49.9957 24.108C50.1353 24.3839 50.4596 24.507 50.7201 24.3828Z" fill="#989FB0"/>
<path fill-rule="evenodd" clip-rule="evenodd" d="M50.4484 23.8455C50.4287 23.8549 50.4213 23.8793 50.4318 23.9002C50.4424 23.921 50.4669 23.9303 50.4865 23.9209C50.5062 23.9115 50.5136 23.8871 50.5031 23.8662C50.4925 23.8454 50.468 23.8361 50.4484 23.8455ZM49.5597 24.3159C49.291 23.7849 49.4797 23.1608 49.981 22.9218C50.4823 22.6828 51.1066 22.9195 51.3752 23.4505C51.6439 23.9815 51.4552 24.6057 50.9539 24.8446C50.4526 25.0836 49.8284 24.8469 49.5597 24.3159Z" fill="#989FB0"/>
<path d="M70.655 31.1406C70.9155 31.0164 71.0135 30.692 70.8739 30.4161C70.7343 30.1402 70.4099 30.0171 70.1494 30.1413C69.8889 30.2655 69.7909 30.5899 69.9305 30.8658C70.0701 31.1418 70.3945 31.2648 70.655 31.1406Z" fill="#989FB0"/>
<path fill-rule="evenodd" clip-rule="evenodd" d="M70.3832 30.6033C70.3635 30.6127 70.3561 30.6372 70.3667 30.658C70.3772 30.6789 70.4017 30.6882 70.4213 30.6788C70.441 30.6694 70.4484 30.6449 70.4379 30.6241C70.4273 30.6033 70.4029 30.594 70.3832 30.6033ZM69.4945 31.0738C69.2258 30.5428 69.4145 29.9185 69.9158 29.6795C70.4172 29.4405 71.0414 29.6773 71.31 30.2083C71.5787 30.7393 71.3901 31.3636 70.8887 31.6026C70.3874 31.8416 69.7632 31.6049 69.4945 31.0738Z" fill="#989FB0"/>
<path d="M12.3005 47.0978L14.9425 46.3015C15.1339 46.246 15.1339 45.9682 14.9425 45.9126L12.3005 45.1163C12.2326 45.0978 12.1832 45.0484 12.1647 44.9805L11.3684 42.3447C11.3128 42.1533 11.0351 42.1533 10.9795 42.3447L10.1832 44.9805C10.1647 45.0484 10.1153 45.0978 10.0474 45.1163L7.41159 45.9126C7.22023 45.9682 7.22023 46.246 7.41159 46.3015L10.0536 47.0978C10.1215 47.1163 10.1709 47.1657 10.1894 47.2336L10.9857 49.8756C11.0412 50.067 11.319 50.067 11.3746 49.8756L12.1709 47.2336C12.1832 47.1657 12.2326 47.1163 12.3005 47.0978Z" fill="#2A2E37"/>
<path d="M96.5554 16.1734L99.2573 16.7337C99.452 16.7761 99.5845 16.532 99.4428 16.3919L97.5006 14.4318C97.4497 14.3831 97.4299 14.3162 97.446 14.2477L98.0034 11.5512C98.0458 11.3565 97.8017 11.224 97.6616 11.3657L95.7045 13.3025C95.6558 13.3534 95.5888 13.3732 95.5203 13.3571L92.8238 12.7997C92.6292 12.7573 92.4967 13.0014 92.6383 13.1415L94.5806 15.1016C94.6314 15.1503 94.6513 15.2172 94.6352 15.2857L94.0748 17.9876C94.0324 18.1823 94.2765 18.3148 94.4167 18.1731L96.3767 16.2309C96.42 16.1771 96.4869 16.1572 96.5554 16.1734Z" fill="#2A2E37"/>
<path d="M94.8952 83.013L96.9595 81.1819C97.1099 81.0512 96.9933 80.799 96.7963 80.8289L94.064 81.2143C93.9946 81.226 93.9291 81.2019 93.8838 81.148L92.0553 79.0895C91.9246 78.9391 91.6724 79.0556 91.7023 79.2526L92.085 81.9792C92.0967 82.0486 92.0726 82.1142 92.0187 82.1594L89.96 83.9879C89.8096 84.1186 89.9262 84.3708 90.1232 84.3409L92.8555 83.9555C92.9249 83.9438 92.9904 83.9679 93.0357 84.0218L94.8668 86.086C94.9975 86.2363 95.2497 86.1198 95.2198 85.9228L94.8345 83.1906C94.8172 83.1238 94.8413 83.0582 94.8952 83.013Z" fill="#959EB0"/>
<path d="M73.8716 64.3258L76.1834 63.6291C76.3508 63.5805 76.3508 63.3374 76.1834 63.2888L73.8716 62.5921C73.8122 62.5759 73.769 62.5327 73.7528 62.4733L73.0561 60.1671C73.0074 59.9996 72.7644 59.9996 72.7158 60.1671L72.019 62.4733C72.0028 62.5327 71.9596 62.5759 71.9002 62.5921L69.5938 63.2888C69.4264 63.3374 69.4264 63.5805 69.5938 63.6291L71.9056 64.3258C71.965 64.342 72.0082 64.3852 72.0244 64.4446L72.7212 66.7563C72.7698 66.9237 73.0128 66.9237 73.0615 66.7563L73.7582 64.4446C73.769 64.3852 73.8122 64.342 73.8716 64.3258Z" fill="#959EB0"/>
<path d="M29.5118 96.7614L31.8235 95.9651C31.991 95.9095 31.991 95.6317 31.8235 95.5762L29.5118 94.7799C29.4524 94.7614 29.4092 94.712 29.393 94.6441L28.6962 92.0083C28.6476 91.8169 28.4045 91.8169 28.3559 92.0083L27.6591 94.6441C27.6429 94.712 27.5997 94.7614 27.5403 94.7799L25.234 95.5762C25.0665 95.6317 25.0665 95.9095 25.234 95.9651L27.5457 96.7614C27.6051 96.7799 27.6483 96.8293 27.6646 96.8972L28.3613 99.5392C28.4099 99.7305 28.653 99.7305 28.7016 99.5392L29.3984 96.8972C29.4092 96.8293 29.4524 96.7799 29.5118 96.7614Z" fill="#959EB0"/>
<path d="M25.6924 57.6715L27.3436 57.1738C27.4632 57.1391 27.4632 56.9655 27.3436 56.9308L25.6924 56.4331C25.65 56.4216 25.6191 56.3907 25.6075 56.3483L25.1098 54.701C25.0751 54.5814 24.9015 54.5814 24.8668 54.701L24.3691 56.3483C24.3575 56.3907 24.3266 56.4216 24.2842 56.4331L22.6368 56.9308C22.5172 56.9655 22.5172 57.1391 22.6368 57.1738L24.2881 57.6715C24.3305 57.6831 24.3614 57.7139 24.3729 57.7564L24.8706 59.4075C24.9054 59.5271 25.079 59.5271 25.1137 59.4075L25.6114 57.7564C25.6191 57.7139 25.65 57.6831 25.6924 57.6715Z" fill="#959EB0"/>
<path d="M120.831 58.7623L122.482 58.2647C122.601 58.2299 122.601 58.0563 122.482 58.0216L120.831 57.524C120.788 57.5124 120.757 57.4815 120.746 57.4391L120.248 55.7918C120.213 55.6723 120.04 55.6723 120.005 55.7918L119.507 57.4391C119.496 57.4815 119.465 57.5124 119.422 57.524L117.775 58.0216C117.655 58.0563 117.655 58.2299 117.775 58.2647L119.426 58.7623C119.469 58.7739 119.5 58.8047 119.511 58.8472L120.009 60.4983C120.044 60.6179 120.217 60.6179 120.252 60.4983L120.75 58.8472C120.757 58.8047 120.788 58.7739 120.831 58.7623Z" fill="#2A2E37"/>
<path d="M37.8975 34.6539L39.5487 34.1563C39.6683 34.1215 39.6683 33.9479 39.5487 33.9132L37.8975 33.4156C37.855 33.404 37.8242 33.3731 37.8126 33.3307L37.3149 31.6834C37.2802 31.5639 37.1066 31.5639 37.0719 31.6834L36.5742 33.3307C36.5626 33.3731 36.5317 33.404 36.4893 33.4156L34.8419 33.9132C34.7223 33.9479 34.7223 34.1215 34.8419 34.1563L36.4931 34.6539C36.5356 34.6655 36.5664 34.6963 36.578 34.7388L37.0757 36.3899C37.1104 36.5095 37.284 36.5095 37.3188 36.3899L37.8165 34.7388C37.8242 34.6963 37.855 34.6655 37.8975 34.6539Z" fill="#959EB0"/>
<path d="M13.3067 90.1031L14.9579 89.6055C15.0775 89.5708 15.0775 89.3972 14.9579 89.3624L13.3067 88.8648C13.2642 88.8532 13.2334 88.8224 13.2218 88.7799L12.7241 87.1327C12.6894 87.0131 12.5158 87.0131 12.481 87.1327L11.9833 88.7799C11.9718 88.8224 11.9409 88.8532 11.8985 88.8648L10.2511 89.3624C10.1315 89.3972 10.1315 89.5708 10.2511 89.6055L11.9023 90.1031C11.9448 90.1147 11.9756 90.1456 11.9872 90.188L12.4849 91.8391C12.5196 91.9587 12.6932 91.9587 12.7279 91.8391L13.2256 90.188C13.2334 90.1456 13.2642 90.1147 13.3067 90.1031Z" fill="#2A2E37"/>
<g filter="url(#filter1_d_577_1684)">
<path d="M58.692 64.5907L61.9788 69.276C62.9178 70.6146 63.5601 71.7335 64.0496 73.2448C65.8821 78.0942 65.1986 83.4246 62.6769 87.7618C62.2088 88.5181 61.9704 89.3987 62.0861 90.1736C62.106 91.0157 62.3558 91.9818 62.8924 92.7468C63.9657 94.2767 65.7653 95.0116 67.5735 94.7419C73.3805 93.6643 79.3531 95.4667 83.4434 99.8737C83.9415 100.38 84.3439 100.954 84.8135 101.623L88.1002 106.309C88.5027 106.882 88.8095 107.523 89.1449 108.001L61.0333 127.722C60.6023 127.311 60.1327 126.641 59.7973 126.163L56.5106 121.478C56.1752 121 55.9354 120.455 55.6 119.977C55.4659 119.786 55.3603 119.432 55.159 119.145C52.5701 113.827 52.8798 107.76 55.841 102.83C56.7772 101.317 56.6316 99.2789 55.5584 97.749C55.0888 97.0797 54.361 96.4489 53.5761 96.1435C53.509 96.0479 53.4134 96.1149 53.4134 96.1149C52.6284 95.8095 51.7864 95.8295 50.9444 95.8495C47.0412 96.5903 43.0409 95.9724 39.4316 94.0814C38.5125 93.5848 37.5934 93.0882 36.7985 92.3618C36.5687 92.2376 36.3675 91.9507 36.2334 91.7595C35.3714 90.9375 34.4423 90.0198 33.7044 88.968L30.4177 84.2828C30.3506 84.1872 30.2164 83.9959 30.0823 83.8047L58.3851 63.9499C58.4908 64.3038 58.5578 64.3995 58.692 64.5907Z" fill="#5C6479"/>
</g>
<path d="M74.5354 109.547C74.5354 109.547 64.4213 118.925 63.742 118.974C63.2924 119.146 59.3136 120.796 56.779 121.861L56.1082 120.905C55.7728 120.426 55.4375 119.948 55.1306 119.308C55.2548 119.078 55.3118 118.752 55.3689 118.427C56.6662 114.378 60.6978 108.126 69.195 108.443L74.5354 109.547Z" fill="#272B33"/>
<path d="M56.5304 84.084L45.3631 92.774L39.5946 94.1099C38.6755 93.6132 37.7565 93.1166 36.9615 92.3902C36.7318 92.266 36.5305 91.9792 36.3964 91.788C39.4818 86.6274 42.3203 83.352 50.5763 81.6979C51.9635 81.4381 53.2551 81.2454 54.805 81.0142C68.6011 79.3258 56.5304 84.084 56.5304 84.084Z" fill="#272B33"/>
<path d="M64.1168 73.3406C65.9493 78.19 65.2658 83.5204 62.7441 87.8576C62.276 88.6139 62.0377 89.4945 62.1533 90.2694L62.0577 90.3365C60.5278 91.4097 60.1282 93.6875 61.2014 95.2174L71.1959 109.464L68.423 111.41L58.3614 97.067C57.2882 95.5371 55.1061 95.0704 53.4806 96.2107C52.6957 95.9053 51.8536 95.9253 51.0116 95.9453C47.1084 96.6861 43.1081 96.0681 39.4988 94.1772C38.5798 93.6806 37.6607 93.184 36.8657 92.4576C45.3801 90.7649 48.2457 85.9011 50.452 81.9279C51.1684 80.712 51.7892 79.5631 52.4771 78.5099C55.2 74.4596 59.2174 73.0681 64.1168 73.3406Z" fill="#3E4350"/>
<path d="M84.7176 101.691L88.0043 106.376C88.4068 106.95 88.7136 107.59 89.049 108.069L63.9972 125.643L59.3946 125.59L56.4432 121.383C56.1079 120.905 55.7725 120.427 55.5327 119.881C55.3985 119.69 55.2929 119.336 55.0917 119.049C55.1873 118.982 55.2544 119.078 55.35 119.011C55.5127 119.039 55.6083 118.972 55.7039 118.905C65.0217 116.934 67.5135 111.334 69.8725 106.968C70.245 106.279 70.7131 105.523 71.1526 104.929C74.0382 100.907 78.2183 99.5443 83.2804 99.8454C83.7499 100.515 84.248 101.021 84.7176 101.691Z" fill="#3E4350"/>
<path d="M60.9889 64.4062L29.6263 86.4074C28.957 86.8769 27.9808 86.7057 27.5783 86.132L25.4319 83.0722C24.9623 82.4029 25.2007 81.5223 25.87 81.0528L57.3282 58.9845C57.9976 58.515 58.9067 58.5906 59.3762 59.2599L61.4556 62.2241C61.7339 63.0275 61.6583 63.9366 60.9889 64.4062Z" fill="url(#paint0_linear_577_1684)"/>
<path d="M92.6484 109.538L61.2858 131.539C60.6165 132.009 59.7074 131.933 59.2378 131.264L57.1584 128.3C56.6889 127.63 56.9272 126.75 57.5965 126.28L89.0548 104.212C89.7241 103.743 90.6332 103.818 91.1028 104.487L93.1821 107.452C93.4604 108.255 93.3177 109.069 92.6484 109.538Z" fill="url(#paint1_linear_577_1684)"/>
<g filter="url(#filter2_d_577_1684)">
<path d="M111.307 42.6053L109.874 45.2699C109.465 46.0312 109.089 46.6002 108.491 47.1902C106.636 49.2069 103.956 50.1493 101.309 49.9878C100.84 49.9462 100.368 50.0427 100.029 50.2813C99.6362 50.4906 99.2391 50.8379 99.0052 51.2729C98.5373 52.143 98.6174 53.1675 99.174 53.9576C101.061 56.4447 101.628 59.6936 100.517 62.6717C100.396 63.0272 100.221 63.3535 100.016 63.7342L98.5832 66.3988C98.4078 66.7251 98.178 67.0221 98.0318 67.294L82.0439 58.6971C82.1357 58.396 82.3404 58.0153 82.4866 57.7434L83.9194 55.0788C84.0656 54.8069 84.2662 54.5642 84.4124 54.2923C84.4709 54.1836 84.613 54.0497 84.7007 53.8865C86.5978 51.4014 89.5369 50.1075 92.5688 50.3358C93.5056 50.4189 94.4337 49.8663 94.9015 48.9962C95.1062 48.6156 95.2314 48.122 95.1893 47.6788C95.2185 47.6244 95.1642 47.5952 95.1642 47.5952C95.1221 47.1519 94.9128 46.759 94.7034 46.366C93.427 44.6982 92.7693 42.662 92.8057 40.5084C92.8221 39.9563 92.8385 39.4043 92.9929 38.8564C92.997 38.7184 93.0847 38.5553 93.1432 38.4465C93.3269 37.8442 93.5398 37.1876 93.8614 36.5894L95.2942 33.9247C95.3235 33.8704 95.3819 33.7616 95.4404 33.6528L111.537 42.3082C111.395 42.4421 111.366 42.4965 111.307 42.6053Z" fill="#5C6479"/>
</g>
<path d="M93.8336 60.7603C93.8336 60.7603 87.0032 58.2092 86.8191 57.8998C86.6308 57.7285 84.907 56.2407 83.8025 55.2963L84.0949 54.7525C84.2411 54.4806 84.3873 54.2087 84.6171 53.9116C84.7551 53.9157 84.9224 53.8655 85.0896 53.8152C87.31 53.4668 91.2202 53.8869 93.0877 57.9756L93.8336 60.7603Z" fill="#272B33"/>
<path d="M101.587 46.2113L94.8313 42.9994L92.831 40.5918C92.8474 40.0398 92.8638 39.4878 93.0182 38.9399C93.0223 38.8019 93.1101 38.6388 93.1685 38.53C96.3385 38.7623 98.5594 39.3256 101.3 42.8325C101.752 43.4261 102.15 43.9904 102.627 44.6676C106.7 50.7832 101.587 46.2113 101.587 46.2113Z" fill="#272B33"/>
<path d="M108.462 47.2444C106.607 49.2611 103.927 50.2036 101.279 50.042C100.811 50.0005 100.339 50.0969 100 50.3355L99.9456 50.3063C99.0756 49.8384 97.9049 50.1904 97.437 51.0605L93.0801 59.1632L91.503 58.3152L95.8892 50.1581C96.3571 49.288 96.0595 48.1465 95.135 47.6494C95.0929 47.2062 94.8836 46.8132 94.6743 46.4202C93.3979 44.7524 92.7402 42.7163 92.7765 40.5626C92.7929 40.0106 92.8094 39.4586 92.9638 38.9107C95.7844 42.5305 98.762 42.7295 101.162 42.8285C101.907 42.8782 102.597 42.8987 103.258 42.9736C105.817 43.2983 107.428 44.8656 108.462 47.2444Z" fill="#3E4350"/>
<path d="M99.962 63.7048L98.5292 66.3694C98.3537 66.6957 98.1239 66.9928 97.9777 67.2647L83.73 59.6035L82.6623 57.417L83.9489 55.0243C84.0952 54.7524 84.2414 54.4805 84.4419 54.2378C84.5004 54.129 84.6425 53.9951 84.7303 53.832C84.7846 53.8612 84.7554 53.9156 84.8098 53.9449C84.8349 54.0285 84.8893 54.0577 84.9437 54.087C88.0865 58.0202 91.3231 57.8678 93.9452 57.9457C94.3592 57.958 94.8276 57.9996 95.2123 58.0663C97.7969 58.4746 99.433 60.1255 100.492 62.5879C100.288 62.9686 100.167 63.3241 99.962 63.7048Z" fill="#3E4350"/>
<path d="M111.939 43.6459L94.1024 34.0548C93.7217 33.8502 93.5709 33.3484 93.7463 33.0221L94.6821 31.282C94.8868 30.9013 95.3592 30.8048 95.7399 31.0095L113.631 40.6299C114.012 40.8346 114.192 41.2819 113.987 41.6626L113.081 43.3484C112.767 43.6706 112.32 43.8506 111.939 43.6459Z" fill="url(#paint2_linear_577_1684)"/>
<path d="M98.1377 69.3137L80.3008 59.7226C79.9202 59.5179 79.7401 59.0706 79.9448 58.6899L80.8513 57.0041C81.0559 56.6235 81.5284 56.527 81.9091 56.7317L99.8003 66.352C100.181 66.5567 100.361 67.0041 100.156 67.3847L99.2499 69.0705C98.9364 69.3927 98.5183 69.5184 98.1377 69.3137Z" fill="url(#paint3_linear_577_1684)"/>
<defs>
<filter id="filter0_d_577_1684" x="22.3257" y="0.272949" width="75.9465" height="75.9463" filterUnits="userSpaceOnUse" color-interpolation-filters="sRGB">
<feFlood flood-opacity="0" result="BackgroundImageFix"/>
<feColorMatrix in="SourceAlpha" type="matrix" values="0 0 0 0 0 0 0 0 0 0 0 0 0 0 0 0 0 0 127 0" result="hardAlpha"/>
<feOffset dy="11"/>
<feGaussianBlur stdDeviation="11"/>
<feColorMatrix type="matrix" values="0 0 0 0 0 0 0 0 0 0 0 0 0 0 0 0 0 0 0.27 0"/>
<feBlend mode="normal" in2="BackgroundImageFix" result="effect1_dropShadow_577_1684"/>
<feBlend mode="normal" in="SourceGraphic" in2="effect1_dropShadow_577_1684" result="shape"/>
</filter>
<filter id="filter1_d_577_1684" x="8.08228" y="52.9497" width="103.063" height="107.772" filterUnits="userSpaceOnUse" color-interpolation-filters="sRGB">
<feFlood flood-opacity="0" result="BackgroundImageFix"/>
<feColorMatrix in="SourceAlpha" type="matrix" values="0 0 0 0 0 0 0 0 0 0 0 0 0 0 0 0 0 0 127 0" result="hardAlpha"/>
<feOffset dy="11"/>
<feGaussianBlur stdDeviation="11"/>
<feColorMatrix type="matrix" values="0 0 0 0 0 0 0 0 0 0 0 0 0 0 0 0 0 0 0.27 0"/>
<feBlend mode="normal" in2="BackgroundImageFix" result="effect1_dropShadow_577_1684"/>
<feBlend mode="normal" in="SourceGraphic" in2="effect1_dropShadow_577_1684" result="shape"/>
</filter>
<filter id="filter2_d_577_1684" x="60.0439" y="22.6528" width="73.4932" height="77.6411" filterUnits="userSpaceOnUse" color-interpolation-filters="sRGB">
<feFlood flood-opacity="0" result="BackgroundImageFix"/>
<feColorMatrix in="SourceAlpha" type="matrix" values="0 0 0 0 0 0 0 0 0 0 0 0 0 0 0 0 0 0 127 0" result="hardAlpha"/>
<feOffset dy="11"/>
<feGaussianBlur stdDeviation="11"/>
<feColorMatrix type="matrix" values="0 0 0 0 0 0 0 0 0 0 0 0 0 0 0 0 0 0 0.27 0"/>
<feBlend mode="normal" in2="BackgroundImageFix" result="effect1_dropShadow_577_1684"/>
<feBlend mode="normal" in="SourceGraphic" in2="effect1_dropShadow_577_1684" result="shape"/>
</filter>
<linearGradient id="paint0_linear_577_1684" x1="26.49" y1="84.6136" x2="60.456" y2="60.786" gradientUnits="userSpaceOnUse">
<stop stop-color="#B0BACC"/>
<stop offset="1" stop-color="#969EAE"/>
</linearGradient>
<linearGradient id="paint1_linear_577_1684" x1="58.183" y1="129.793" x2="92.149" y2="105.966" gradientUnits="userSpaceOnUse">
<stop stop-color="#B0BACC"/>
<stop offset="1" stop-color="#969EAE"/>
</linearGradient>
<linearGradient id="paint2_linear_577_1684" x1="94.2052" y1="32.1476" x2="113.523" y2="42.5349" gradientUnits="userSpaceOnUse">
<stop stop-color="#B0BACC"/>
<stop offset="1" stop-color="#969EAE"/>
</linearGradient>
<linearGradient id="paint3_linear_577_1684" x1="80.389" y1="57.8426" x2="99.7065" y2="68.2299" gradientUnits="userSpaceOnUse">
<stop stop-color="#B0BACC"/>
<stop offset="1" stop-color="#969EAE"/>
</linearGradient>
</defs>
</svg>
