<?xml version="1.0" encoding="utf-8"?>
<!-- Generator: Adobe Illustrator 24.0.1, SVG Export Plug-In . SVG Version: 6.00 Build 0)  -->
<svg version="1.1" id="Camada_1" xmlns="http://www.w3.org/2000/svg" xmlns:xlink="http://www.w3.org/1999/xlink" x="0px" y="0px"
	 viewBox="0 0 800 800" style="enable-background:new 0 0 800 800;" xml:space="preserve">
<rect x="235" y="246.5" fill="#FFFFFF" stroke="#000000" stroke-miterlimit="10" width="314" height="307"/>
<path fill="#80163A" fill-rule="evenodd" clip-rule="evenodd" d="M733.3,400c0,184.1-149.2,333.3-333.3,333.3S66.7,584.1,66.7,400S215.9,66.7,400,66.7S733.3,215.9,733.3,400z
	 M299,299c9.8-9.8,25.6-9.8,35.4,0l65.7,65.7l65.7-65.7c9.8-9.8,25.6-9.8,35.4,0s9.8,25.6,0,35.4L435.4,400l65.7,65.7
	c9.8,9.8,9.8,25.6,0,35.4s-25.6,9.8-35.4,0L400,435.4L334.3,501c-9.8,9.8-25.6,9.8-35.4,0s-9.8-25.6,0-35.4l65.7-65.7L299,334.3
	C289.2,324.6,289.2,308.8,299,299z"/>
</svg>
