<?xml version="1.0" encoding="utf-8"?>
<!-- Generator: Adobe Illustrator 24.0.1, SVG Export Plug-In . SVG Version: 6.00 Build 0)  -->
<svg version="1.1" id="Camada_1" xmlns="http://www.w3.org/2000/svg" xmlns:xlink="http://www.w3.org/1999/xlink" x="0px" y="0px"
	 viewBox="0 0 800 800" style="enable-background:new 0 0 800 800;" xml:space="preserve">
<rect x="187" y="236" fill="#FFFFFF" width="454" height="335"/>
<path fill="#005767" d="M400,50c193.3,0,350,156.7,350,350S593.3,750,400,750S50,593.3,50,400S206.7,50,400,50z M356.4,469l-77.8-77.8
	c-11.7-11.7-30.7-11.7-42.4,0c-11.7,11.7-11.7,30.7,0,42.4l99,99c11.6,11.7,30.6,11.8,42.3,0.2c0.1-0.1,0.1-0.1,0.2-0.2l205-205
	c11.8-11.6,12-30.6,0.4-42.4c-11.6-11.8-30.6-12-42.4-0.4c-0.1,0.1-0.2,0.2-0.3,0.3L356.4,469L356.4,469z"/>
</svg>
