<?xml version="1.0" encoding="utf-8"?>
<!-- Generator: Adobe Illustrator 24.0.1, SVG Export Plug-In . SVG Version: 6.00 Build 0)  -->
<svg version="1.1" id="Camada_1" xmlns="http://www.w3.org/2000/svg" xmlns:xlink="http://www.w3.org/1999/xlink" x="0px" y="0px"
	 viewBox="0 0 800 800" style="enable-background:new 0 0 800 800;" xml:space="preserve">
<rect x="301" y="166" fill="#FFFFFF" stroke="#000000" stroke-miterlimit="10" width="200" height="512"/>
<path fill="#D01E19" d="M400,66.7C215.9,66.7,66.7,215.9,66.7,400S215.9,733.3,400,733.3S733.3,584.1,733.3,400S584.1,66.7,400,66.7z
	 M366.7,233.3c0-18.4,14.9-33.3,33.3-33.3s33.3,14.9,33.3,33.3v200c0,18.4-14.9,33.3-33.3,33.3s-33.3-14.9-33.3-33.3V233.3z
	 M400,633.3c-27.6,0-50-22.4-50-50s22.4-50,50-50s50,22.4,50,50S427.6,633.3,400,633.3z"/>
</svg>
